# MagicaVoxel @ Ephtracy

# group
o 

# material
mtllib parrot.vox.mtl
usemtl palette

# normals
vn -1 0 0
vn 1 0 0
vn 0 0 1
vn 0 0 -1
vn 0 -1 0
vn 0 1 0

# texcoords
vt 0.130859 0.5
vt 0.513672 0.5
vt 0.517578 0.5
vt 0.556641 0.5
vt 0.693359 0.5
vt 0.705078 0.5
vt 0.708984 0.5
vt 0.958984 0.5
vt 0.962891 0.5
vt 0.966797 0.5
vt 0.990234 0.5

# verts
v -1.2 0.4 0.5
v -1.2 0.4 -0.0999999
v -1.2 0.6 0.5
v -1.2 0.6 -0.0999999
v -1.2 0.8 0.5
v -1.2 0.8 -0.0999999
v -1.2 1.1 0.5
v -1.2 1.1 -0.0999999
v -1 0.2 1.1
v -1 0.2 -0.9
v -1 0.4 0.5
v -1 0.4 -0.0999999
v -1 0.6 0.5
v -1 0.6 -0.0999999
v -1 0.7 1.1
v -1 0.7 0.7
v -1 0.8 0.5
v -1 0.8 -0.0999999
v -1 1.1 1.1
v -1 1.1 0.7
v -1 1.1 0.5
v -1 1.1 -0.0999999
v -1 2 1.1
v -1 2 -0.9
v -0.8 0 0.7
v -0.8 0 -0.5
v -0.8 0.2 0.7
v -0.8 0.2 -0.5
v -0.8 0.3 -0.9
v -0.8 0.3 -1.2
v -0.8 0.7 -0.9
v -0.8 0.7 -1.2
v -0.3 0.7 1.2
v -0.3 0.7 1.1
v -0.3 1 1.1
v -0.3 1.4 1.2
v -0.3 1.4 1.1
v 0.4 0 0.7
v 0.4 0 -0.5
v 0.4 0.2 0.7
v 0.4 0.2 -0.5
v -0.4 0 0.7
v -0.4 0 -0.5
v -0.4 0.2 0.7
v -0.4 0.2 -0.5
v 0.3 0.7 1.2
v 0.3 0.7 1.1
v 0.3 1 1.1
v 0.3 1.4 1.2
v 0.3 1.4 1.1
v 0.8 0 0.7
v 0.8 0 -0.5
v 0.8 0.2 0.7
v 0.8 0.2 -0.5
v 0.8 0.3 -0.9
v 0.8 0.3 -1.2
v 0.8 0.7 -0.9
v 0.8 0.7 -1.2
v 1 0.2 1.1
v 1 0.2 -0.9
v 1 0.4 0.5
v 1 0.4 -0.0999999
v 1 0.6 0.5
v 1 0.6 -0.0999999
v 1 0.7 1.1
v 1 0.7 0.7
v 1 0.7 0.5
v 1 0.7 -0.0999999
v 1 0.7 -0.8
v 1 0.8 0.5
v 1 0.8 -0.0999999
v 1 1.1 1.1
v 1 1.1 0.7
v 1 1.1 0.5
v 1 1.1 -0.0999999
v 1 1.1 -0.8
v 1 2 1.1
v 1 2 -0.9
v 1.2 0.4 0.5
v 1.2 0.4 -0.0999999
v 1.2 0.6 0.5
v 1.2 0.6 -0.0999999
v 1.2 0.8 0.5
v 1.2 0.8 -0.0999999
v 1.2 1.1 0.5
v 1.2 1.1 -0.0999999
v -0.3 0.7 1.2
v -0.3 1.4 1.2
v 0.3 0.7 1.2
v 0.3 1.4 1.2
v -1 0.2 1.1
v -1 0.7 1.1
v -1 1.1 1.1
v -1 2 1.1
v -0.6 0.7 1.1
v -0.6 1 1.1
v -0.6 1.1 1.1
v -0.6 1.4 1.1
v -0.3 0.7 1.1
v -0.3 1 1.1
v -0.3 1.4 1.1
v 0.3 0.7 1.1
v 0.3 1 1.1
v 0.3 1.4 1.1
v 0.6 0.7 1.1
v 0.6 1 1.1
v 0.6 1.1 1.1
v 0.6 1.4 1.1
v 1 0.2 1.1
v 1 0.7 1.1
v 1 1.1 1.1
v 1 2 1.1
v -0.8 0 0.7
v -0.8 0.2 0.7
v -0.4 0 0.7
v -0.4 0.2 0.7
v 0.4 0 0.7
v 0.4 0.2 0.7
v 0.8 0 0.7
v 0.8 0.2 0.7
v -1.2 0.4 0.5
v -1.2 0.6 0.5
v -1.2 0.8 0.5
v -1.2 1.1 0.5
v -1 0.4 0.5
v -1 0.6 0.5
v -1 0.8 0.5
v -1 1.1 0.5
v 1 0.4 0.5
v 1 0.6 0.5
v 1 0.7 0.5
v 1 0.8 0.5
v 1 1.1 0.5
v 1.2 0.4 0.5
v 1.2 0.6 0.5
v 1.2 0.8 0.5
v 1.2 1.1 0.5
v -1.2 0.4 -0.0999999
v -1.2 0.6 -0.0999999
v -1.2 0.8 -0.0999999
v -1.2 1.1 -0.0999999
v -1 0.4 -0.0999999
v -1 0.6 -0.0999999
v -1 0.8 -0.0999999
v -1 1.1 -0.0999999
v 1 0.4 -0.0999999
v 1 0.6 -0.0999999
v 1 0.7 -0.0999999
v 1 0.8 -0.0999999
v 1 1.1 -0.0999999
v 1.2 0.4 -0.0999999
v 1.2 0.6 -0.0999999
v 1.2 0.8 -0.0999999
v 1.2 1.1 -0.0999999
v -0.8 0 -0.5
v -0.8 0.2 -0.5
v -0.4 0 -0.5
v -0.4 0.2 -0.5
v 0.4 0 -0.5
v 0.4 0.2 -0.5
v 0.8 0 -0.5
v 0.8 0.2 -0.5
v -1 0.2 -0.9
v -1 2 -0.9
v -0.8 0.3 -0.9
v -0.8 0.7 -0.9
v 0.8 0.3 -0.9
v 0.8 0.7 -0.9
v 1 0.2 -0.9
v 1 2 -0.9
v -0.8 0.3 -1.2
v -0.8 0.7 -1.2
v 0.8 0.3 -1.2
v 0.8 0.7 -1.2
v -0.8 0 0.7
v -0.4 0 0.7
v 0.4 0 0.7
v 0.8 0 0.7
v -0.8 0 -0.5
v -0.4 0 -0.5
v 0.4 0 -0.5
v 0.8 0 -0.5
v -1 0.2 1.1
v 1 0.2 1.1
v -0.8 0.2 0.7
v -0.4 0.2 0.7
v 0.4 0.2 0.7
v 0.8 0.2 0.7
v -0.8 0.2 -0.5
v -0.4 0.2 -0.5
v 0.4 0.2 -0.5
v 0.8 0.2 -0.5
v -1 0.2 -0.9
v 1 0.2 -0.9
v -0.8 0.3 -0.9
v 0.8 0.3 -0.9
v -0.8 0.3 -1.2
v 0.8 0.3 -1.2
v -1.2 0.4 0.5
v -1 0.4 0.5
v 1 0.4 0.5
v 1.2 0.4 0.5
v -1.2 0.4 -0.0999999
v -1 0.4 -0.0999999
v 1 0.4 -0.0999999
v 1.2 0.4 -0.0999999
v -0.3 0.7 1.2
v 0.3 0.7 1.2
v -0.3 0.7 1.1
v 0.3 0.7 1.1
v -0.8 0.7 -0.9
v 0.8 0.7 -0.9
v -0.8 0.7 -1.2
v 0.8 0.7 -1.2
v -1.2 1.1 0.5
v -1 1.1 0.5
v 1 1.1 0.5
v 1.2 1.1 0.5
v -1.2 1.1 -0.0999999
v -1 1.1 -0.0999999
v 1 1.1 -0.0999999
v 1.2 1.1 -0.0999999
v -0.3 1.4 1.2
v 0.3 1.4 1.2
v -0.3 1.4 1.1
v 0.3 1.4 1.1
v -1 2 1.1
v 1 2 1.1
v -1 2 -0.9
v 1 2 -0.9

# faces
f 3/5/1 2/5/1 1/5/1
f 4/5/1 2/5/1 3/5/1
f 5/7/1 4/7/1 3/7/1
f 6/7/1 4/7/1 5/7/1
f 7/6/1 6/6/1 5/6/1
f 8/6/1 6/6/1 7/6/1
f 11/6/1 10/6/1 9/6/1
f 12/6/1 10/6/1 11/6/1
f 13/6/1 11/6/1 9/6/1
f 14/6/1 10/6/1 12/6/1
f 15/6/1 13/6/1 9/6/1
f 16/6/1 13/6/1 15/6/1
f 17/6/1 13/6/1 16/6/1
f 18/6/1 10/6/1 14/6/1
f 19/2/1 16/2/1 15/2/1
f 20/6/1 17/6/1 16/6/1
f 20/2/1 16/2/1 19/2/1
f 21/6/1 17/6/1 20/6/1
f 22/6/1 10/6/1 18/6/1
f 23/6/1 21/6/1 20/6/1
f 23/6/1 22/6/1 21/6/1
f 23/6/1 20/6/1 19/6/1
f 24/6/1 10/6/1 22/6/1
f 24/6/1 22/6/1 23/6/1
f 27/1/1 26/1/1 25/1/1
f 28/1/1 26/1/1 27/1/1
f 31/5/1 30/5/1 29/5/1
f 32/5/1 30/5/1 31/5/1
f 35/7/1 34/7/1 33/7/1
f 36/7/1 35/7/1 33/7/1
f 37/7/1 35/7/1 36/7/1
f 40/1/1 39/1/1 38/1/1
f 41/1/1 39/1/1 40/1/1
f 42/1/2 43/1/2 44/1/2
f 44/1/2 43/1/2 45/1/2
f 46/7/2 47/7/2 48/7/2
f 46/7/2 48/7/2 49/7/2
f 49/7/2 48/7/2 50/7/2
f 51/1/2 52/1/2 53/1/2
f 53/1/2 52/1/2 54/1/2
f 55/5/2 56/5/2 57/5/2
f 57/5/2 56/5/2 58/5/2
f 59/6/2 60/6/2 61/6/2
f 61/6/2 60/6/2 62/6/2
f 59/6/2 61/6/2 63/6/2
f 62/6/2 60/6/2 64/6/2
f 59/6/2 63/6/2 65/6/2
f 65/6/2 63/6/2 66/6/2
f 66/6/2 63/6/2 67/6/2
f 64/6/2 60/6/2 68/6/2
f 68/6/2 60/6/2 69/6/2
f 66/3/2 67/3/2 70/3/2
f 68/3/2 69/3/2 71/3/2
f 65/2/2 66/2/2 72/2/2
f 66/3/2 70/3/2 73/3/2
f 72/2/2 66/2/2 73/2/2
f 73/3/2 70/3/2 74/3/2
f 71/3/2 69/3/2 75/3/2
f 69/6/2 60/6/2 76/6/2
f 75/3/2 69/3/2 76/3/2
f 74/6/2 75/6/2 77/6/2
f 73/6/2 74/6/2 77/6/2
f 75/6/2 76/6/2 77/6/2
f 72/6/2 73/6/2 77/6/2
f 76/6/2 60/6/2 78/6/2
f 77/6/2 76/6/2 78/6/2
f 79/5/2 80/5/2 81/5/2
f 81/5/2 80/5/2 82/5/2
f 81/7/2 82/7/2 83/7/2
f 83/7/2 82/7/2 84/7/2
f 83/6/2 84/6/2 85/6/2
f 85/6/2 84/6/2 86/6/2
f 89/7/3 88/7/3 87/7/3
f 90/7/3 88/7/3 89/7/3
f 95/6/3 92/6/3 91/6/3
f 95/2/3 93/2/3 92/2/3
f 96/2/3 93/2/3 95/2/3
f 97/6/3 94/6/3 93/6/3
f 97/2/3 93/2/3 96/2/3
f 98/6/3 94/6/3 97/6/3
f 99/6/3 96/6/3 95/6/3
f 99/6/3 95/6/3 91/6/3
f 100/11/3 98/11/3 97/11/3
f 100/6/3 96/6/3 99/6/3
f 100/11/3 97/11/3 96/11/3
f 101/6/3 94/6/3 98/6/3
f 101/11/3 98/11/3 100/11/3
f 102/6/3 99/6/3 91/6/3
f 104/6/3 94/6/3 101/6/3
f 105/6/3 103/6/3 102/6/3
f 105/6/3 102/6/3 91/6/3
f 106/11/3 104/11/3 103/11/3
f 106/6/3 103/6/3 105/6/3
f 107/11/3 104/11/3 106/11/3
f 108/6/3 94/6/3 104/6/3
f 108/11/3 104/11/3 107/11/3
f 109/6/3 105/6/3 91/6/3
f 110/2/3 107/2/3 106/2/3
f 110/6/3 105/6/3 109/6/3
f 110/2/3 106/2/3 105/2/3
f 111/6/3 108/6/3 107/6/3
f 111/2/3 107/2/3 110/2/3
f 112/6/3 94/6/3 108/6/3
f 112/6/3 108/6/3 111/6/3
f 115/1/3 114/1/3 113/1/3
f 116/1/3 114/1/3 115/1/3
f 119/1/3 118/1/3 117/1/3
f 120/1/3 118/1/3 119/1/3
f 125/5/3 122/5/3 121/5/3
f 126/7/3 123/7/3 122/7/3
f 126/5/3 122/5/3 125/5/3
f 127/6/3 124/6/3 123/6/3
f 127/7/3 123/7/3 126/7/3
f 128/6/3 124/6/3 127/6/3
f 134/5/3 130/5/3 129/5/3
f 135/7/3 131/7/3 130/7/3
f 135/5/3 130/5/3 134/5/3
f 135/7/3 132/7/3 131/7/3
f 136/6/3 133/6/3 132/6/3
f 136/7/3 132/7/3 135/7/3
f 137/6/3 133/6/3 136/6/3
f 138/5/4 139/5/4 142/5/4
f 139/7/4 140/7/4 143/7/4
f 142/5/4 139/5/4 143/5/4
f 140/6/4 141/6/4 144/6/4
f 143/7/4 140/7/4 144/7/4
f 144/6/4 141/6/4 145/6/4
f 146/5/4 147/5/4 151/5/4
f 147/7/4 148/7/4 152/7/4
f 151/5/4 147/5/4 152/5/4
f 148/7/4 149/7/4 152/7/4
f 149/6/4 150/6/4 153/6/4
f 152/7/4 149/7/4 153/7/4
f 153/6/4 150/6/4 154/6/4
f 155/1/4 156/1/4 157/1/4
f 157/1/4 156/1/4 158/1/4
f 159/1/4 160/1/4 161/1/4
f 161/1/4 160/1/4 162/1/4
f 163/6/4 164/6/4 165/6/4
f 165/6/4 164/6/4 166/6/4
f 163/6/4 165/6/4 167/6/4
f 166/6/4 164/6/4 168/6/4
f 163/6/4 167/6/4 169/6/4
f 167/6/4 168/6/4 169/6/4
f 168/6/4 164/6/4 170/6/4
f 169/6/4 168/6/4 170/6/4
f 171/5/4 172/5/4 173/5/4
f 173/5/4 172/5/4 174/5/4
f 179/1/5 176/1/5 175/1/5
f 180/1/5 176/1/5 179/1/5
f 181/1/5 178/1/5 177/1/5
f 182/1/5 178/1/5 181/1/5
f 185/6/5 184/6/5 183/6/5
f 186/6/5 184/6/5 185/6/5
f 187/6/5 184/6/5 186/6/5
f 188/6/5 184/6/5 187/6/5
f 189/6/5 185/6/5 183/6/5
f 190/6/5 187/6/5 186/6/5
f 191/6/5 187/6/5 190/6/5
f 192/6/5 184/6/5 188/6/5
f 193/6/5 191/6/5 190/6/5
f 193/6/5 192/6/5 191/6/5
f 193/6/5 189/6/5 183/6/5
f 193/6/5 190/6/5 189/6/5
f 194/6/5 184/6/5 192/6/5
f 194/6/5 192/6/5 193/6/5
f 197/5/5 196/5/5 195/5/5
f 198/5/5 196/5/5 197/5/5
f 203/5/5 200/5/5 199/5/5
f 204/5/5 200/5/5 203/5/5
f 205/5/5 202/5/5 201/5/5
f 206/5/5 202/5/5 205/5/5
f 209/7/5 208/7/5 207/7/5
f 210/7/5 208/7/5 209/7/5
f 211/5/6 212/5/6 213/5/6
f 213/5/6 212/5/6 214/5/6
f 215/6/6 216/6/6 219/6/6
f 219/6/6 216/6/6 220/6/6
f 217/6/6 218/6/6 221/6/6
f 221/6/6 218/6/6 222/6/6
f 223/7/6 224/7/6 225/7/6
f 225/7/6 224/7/6 226/7/6
f 227/6/6 228/6/6 229/6/6
f 229/6/6 228/6/6 230/6/6
